<svg width="800" height="800" viewBox="0 0 800 800" fill="none" xmlns="http://www.w3.org/2000/svg">
<path d="M724.604 289.967V313.368H688.703V391.711H660.068V313.368H624.167V289.967H724.604Z" fill="#ED0F00"/>
<path d="M585.424 391.711V289.967H614.057V391.711H585.424Z" fill="#ED0F00"/>
<path d="M539.965 289.967H567.146V391.711H519.034L488.367 308.426V391.711H461.186V289.967H509.296L539.965 373.252V289.967Z" fill="#ED0F00"/>
<path d="M393.061 335.61H446.985V383.285C430.222 390.068 413.603 393.46 397.131 393.46C377.945 393.46 363.119 388.808 352.654 379.506C342.188 370.204 336.956 357.316 336.956 340.843C336.956 324.467 341.849 311.628 351.636 302.325C361.52 292.926 375.183 288.227 392.625 288.227C406.676 288.227 418.158 291.23 427.073 297.238C436.085 303.246 441.753 311.482 444.078 321.948L416.463 323.983C414.717 320.203 411.714 317.199 407.451 314.971C403.284 312.645 398.342 311.482 392.625 311.482C383.807 311.482 377.073 314.244 372.422 319.767C367.867 325.291 365.591 332.316 365.591 340.843C365.591 350.049 368.304 357.268 373.729 362.5C379.155 367.636 387.15 370.204 397.712 370.204C405.271 370.204 413.071 369.138 421.113 367.006V354.506H393.061V335.61Z" fill="#ED0F00"/>
<path d="M308.933 391.711L301.957 371.363H255.591L248.613 391.711H220.561L257.771 289.967H300.649L338.004 391.711H308.933ZM263.003 349.851H294.543L278.847 304.066L263.003 349.851Z" fill="#ED0F00"/>
<path d="M162.769 289.967H212.333L212.188 391.711H185.007V307.118L162.914 391.711H124.397L102.303 307.118V391.711H75.123V289.967H124.978L144.019 373.979L162.769 289.967Z" fill="#ED0F00"/>
<path d="M476.268 407.91H504.902V509.655H476.268V469.539H430.484V509.655H401.849V407.91H430.484V446.136H476.268V407.91Z" fill="#ED0F00"/>
<path d="M295.862 497.449C285.785 488.05 280.745 475.162 280.745 458.787C280.745 442.411 285.639 429.571 295.425 420.269C305.309 410.87 319.02 406.17 336.561 406.17C351.192 406.17 363.014 409.368 372.025 415.763C381.037 422.158 386.56 430.928 388.595 442.072L361.123 444.106C359.767 439.649 356.86 436.112 352.403 433.496C348.043 430.782 342.762 429.426 336.561 429.426C327.644 429.426 320.862 432.188 316.211 437.711C311.657 443.233 309.38 450.259 309.38 458.787C309.38 467.798 311.899 474.968 316.938 480.298C322.073 485.53 329.147 488.147 338.158 488.147C344.845 488.147 350.272 486.645 354.437 483.641C358.702 480.638 361.511 476.761 362.869 472.013L390.484 473.612C388.643 485.919 383.313 495.318 374.497 501.81C365.678 508.205 353.566 511.403 338.158 511.403C320.038 511.403 305.94 506.752 295.862 497.449Z" fill="#ED0F00"/>
<path d="M214.51 487.417H278.317V509.655H185.876V407.91H275.992V430.149H214.51V447.445H262.33V468.376H214.51V487.417Z" fill="#ED0F00"/>
<path d="M175.651 407.91V431.311H139.749V509.655H111.115V431.311H75.2141V407.91H175.651Z" fill="#ED0F00"/>
</svg>
