<svg width="439" height="152" viewBox="0 0 439 152" fill="none" xmlns="http://www.w3.org/2000/svg">
<path d="M438.643 1.74487V17.5371H414.416V70.4069H395.092V17.5371H370.864V1.74487H438.643Z" fill="white"/>
<path d="M344.719 70.4069V1.74487H364.042V70.4069H344.719Z" fill="white"/>
<path d="M314.041 1.74487H332.384V70.4069H299.916L279.22 14.2021V70.4069H260.877V1.74487H293.344L314.041 57.9497V1.74487Z" fill="white"/>
<path d="M214.903 32.5473H251.294V64.7204C239.981 69.2979 228.766 71.5866 217.65 71.5866C204.702 71.5866 194.697 68.4478 187.635 62.1701C180.572 55.8924 177.041 47.1952 177.041 36.0785C177.041 25.0272 180.343 16.3627 186.948 10.085C193.618 3.74197 202.838 0.570435 214.609 0.570435C224.091 0.570435 231.84 2.5976 237.856 6.65193C243.937 10.7063 247.763 16.2646 249.332 23.327L230.695 24.7002C229.518 22.1499 227.491 20.1228 224.614 18.6187C221.802 17.0493 218.467 16.2646 214.609 16.2646C208.658 16.2646 204.113 18.1283 200.975 21.8557C197.901 25.583 196.364 30.324 196.364 36.0785C196.364 42.2908 198.195 47.1625 201.857 50.6937C205.519 54.1595 210.914 55.8924 218.042 55.8924C223.143 55.8924 228.407 55.1731 233.834 53.7345V45.2989H214.903V32.5473Z" fill="white"/>
<path d="M158.13 70.4069L153.422 56.6745H122.132L117.423 70.4069H98.4922L123.603 1.74487H152.539L177.748 70.4069H158.13ZM127.134 42.1574H148.419L137.826 11.2595L127.134 42.1574Z" fill="white"/>
<path d="M59.4912 1.74487H92.9394L92.8413 70.4069H74.4988V13.3193L59.5893 70.4069H33.5958L18.6863 13.3193V70.4069H0.34375V1.74487H33.9882L46.8378 58.4401L59.4912 1.74487Z" fill="white"/>
<path d="M271.055 81.3381H290.379V150H271.055V122.928H240.157V150H220.834V81.3381H240.157V107.135H271.055V81.3381Z" fill="white"/>
<path d="M149.309 141.763C142.508 135.42 139.107 126.723 139.107 115.672C139.107 104.62 142.41 95.9558 149.014 89.6782C155.684 83.3351 164.937 80.1636 176.773 80.1636C186.648 80.1636 194.626 82.3215 200.707 86.6374C206.789 90.9533 210.516 96.8713 211.889 104.391L193.35 105.765C192.435 102.757 190.473 100.37 187.465 98.6042C184.522 96.7732 180.959 95.8578 176.773 95.8578C170.757 95.8578 166.18 97.7214 163.041 101.449C159.968 105.176 158.431 109.917 158.431 115.672C158.431 121.753 160.131 126.592 163.531 130.189C166.997 133.72 171.771 135.486 177.852 135.486C182.365 135.486 186.026 134.472 188.838 132.445C191.716 130.418 193.612 127.802 194.528 124.598L213.164 125.677C211.922 133.982 208.325 140.325 202.375 144.706C196.424 149.022 188.25 151.18 177.852 151.18C165.624 151.18 156.109 148.041 149.309 141.763Z" fill="white"/>
<path d="M94.4084 134.993H137.469V150H75.085V81.3381H135.9V96.3457H94.4084V108.018H126.68V122.143H94.4084V134.993Z" fill="white"/>
<path d="M68.1845 81.3381V97.1304H43.9566V150H24.6332V97.1304H0.405273V81.3381H68.1845Z" fill="white"/>
</svg>
